<?xml version="1.0" encoding="UTF-8" standalone="no"?>
<!DOCTYPE svg PUBLIC "-//W3C//DTD SVG 1.1//EN"
 "http://www.w3.org/Graphics/SVG/1.1/DTD/svg11.dtd">
<!-- Generated by graphviz version 2.43.0 (0)
 -->
<!-- Title: GetPathToSettingsFile Pages: 1 -->
<svg width="261pt" height="45pt"
 viewBox="0.00 0.00 261.00 45.00" xmlns="http://www.w3.org/2000/svg" xmlns:xlink="http://www.w3.org/1999/xlink">
<g id="graph0" class="graph" transform="scale(1 1) rotate(0) translate(4 41)">
<title>GetPathToSettingsFile</title>
<!-- Node1 -->
<g id="Node000001" class="node">
<title>Node1</title>
<g id="a_Node000001"><a xlink:title="Service function that builds path to the settings file.">
<polygon fill="#999999" stroke="#666666" points="122,-19 0,-19 0,0 122,0 122,-19"/>
<text text-anchor="middle" x="61" y="-7" font-family="Helvetica,sans-Serif" font-size="10.00">GetPathToSettingsFile</text>
</a>
</g>
</g>
<!-- Node1&#45;&gt;Node1 -->
<g id="edge2_Node000001_Node000001" class="edge">
<title>Node1&#45;&gt;Node1</title>
<g id="a_edge2_Node000001_Node000001"><a xlink:title=" ">
<path fill="none" stroke="#63b8ff" d="M38.81,-19.08C28.01,-27.73 35.41,-37 61,-37 77.4,-37 86.32,-33.2 87.79,-28.19"/>
<polygon fill="#63b8ff" stroke="#63b8ff" points="90.82,-26.44 83.19,-19.08 84.57,-29.59 90.82,-26.44"/>
</a>
</g>
</g>
<!-- Node2 -->
<g id="Node000002" class="node">
<title>Node2</title>
<g id="a_Node000002"><a xlink:href="settings_8cpp.html#abb5ddbc994d543c5f0f27a3cf8738672" target="_top" xlink:title="This function was copied directly from the BeBook.">
<polygon fill="white" stroke="#666666" points="253,-19 158,-19 158,0 253,0 253,-19"/>
<text text-anchor="middle" x="205.5" y="-7" font-family="Helvetica,sans-Serif" font-size="10.00">del_InputDevice</text>
</a>
</g>
</g>
<!-- Node1&#45;&gt;Node2 -->
<g id="edge1_Node000001_Node000002" class="edge">
<title>Node1&#45;&gt;Node2</title>
<g id="a_edge1_Node000001_Node000002"><a xlink:title=" ">
<path fill="none" stroke="#63b8ff" d="M122.02,-9.5C130.56,-9.5 139.33,-9.5 147.81,-9.5"/>
<polygon fill="#63b8ff" stroke="#63b8ff" points="147.97,-13 157.97,-9.5 147.97,-6 147.97,-13"/>
</a>
</g>
</g>
</g>
</svg>
