<?xml version="1.0" encoding="UTF-8" standalone="no"?>
<!DOCTYPE svg PUBLIC "-//W3C//DTD SVG 1.1//EN"
 "http://www.w3.org/Graphics/SVG/1.1/DTD/svg11.dtd">
<!-- Generated by graphviz version 2.43.0 (0)
 -->
<!-- Title: StartMonitoring Pages: 1 -->
<svg width="389pt" height="82pt"
 viewBox="0.00 0.00 389.00 82.00" xmlns="http://www.w3.org/2000/svg" xmlns:xlink="http://www.w3.org/1999/xlink">
<g id="graph0" class="graph" transform="scale(1 1) rotate(0) translate(4 78)">
<title>StartMonitoring</title>
<!-- Node1 -->
<g id="Node000001" class="node">
<title>Node1</title>
<g id="a_Node000001"><a xlink:title=" ">
<polygon fill="#999999" stroke="#666666" points="92,-46 0,-46 0,-27 92,-27 92,-46"/>
<text text-anchor="middle" x="46" y="-34" font-family="Helvetica,sans-Serif" font-size="10.00">StartMonitoring</text>
</a>
</g>
</g>
<!-- Node2 -->
<g id="Node000002" class="node">
<title>Node2</title>
<g id="a_Node000002"><a xlink:href="settings_8h.html#adda40614fbfbcd1147035846ff2fdfcf" target="_top" xlink:title="Service function for creating a default file with settings. All devices are enabled.">
<polygon fill="white" stroke="#666666" points="242,-74 136,-74 136,-55 242,-55 242,-74"/>
<text text-anchor="middle" x="189" y="-62" font-family="Helvetica,sans-Serif" font-size="10.00">CreateSettingsFile</text>
</a>
</g>
</g>
<!-- Node1&#45;&gt;Node2 -->
<g id="edge1_Node000001_Node000002" class="edge">
<title>Node1&#45;&gt;Node2</title>
<g id="a_edge1_Node000001_Node000002"><a xlink:title=" ">
<path fill="none" stroke="#63b8ff" d="M92,-45.44C104.08,-47.84 117.32,-50.46 130,-52.98"/>
<polygon fill="#63b8ff" stroke="#63b8ff" points="129.53,-56.46 140.02,-54.97 130.89,-49.59 129.53,-56.46"/>
</a>
</g>
</g>
<!-- Node3 -->
<g id="Node000003" class="node">
<title>Node3</title>
<g id="a_Node000003"><a xlink:href="settings_8h.html#a3360589d74d76cac2974ebfbbceac799" target="_top" xlink:title="Service function that builds path to the settings file.">
<polygon fill="white" stroke="#666666" points="250,-19 128,-19 128,0 250,0 250,-19"/>
<text text-anchor="middle" x="189" y="-7" font-family="Helvetica,sans-Serif" font-size="10.00">GetPathToSettingsFile</text>
</a>
</g>
</g>
<!-- Node1&#45;&gt;Node3 -->
<g id="edge2_Node000001_Node000003" class="edge">
<title>Node1&#45;&gt;Node3</title>
<g id="a_edge2_Node000001_Node000003"><a xlink:title=" ">
<path fill="none" stroke="#63b8ff" d="M92,-27.88C103.46,-25.69 115.96,-23.3 128.04,-20.98"/>
<polygon fill="#63b8ff" stroke="#63b8ff" points="128.89,-24.38 138.05,-19.07 127.57,-17.51 128.89,-24.38"/>
</a>
</g>
</g>
<!-- Node3&#45;&gt;Node3 -->
<g id="edge4_Node000003_Node000003" class="edge">
<title>Node3&#45;&gt;Node3</title>
<g id="a_edge4_Node000003_Node000003"><a xlink:title=" ">
<path fill="none" stroke="#63b8ff" d="M167.11,-19.08C156.47,-27.73 163.76,-37 189,-37 205.17,-37 213.97,-33.2 215.41,-28.19"/>
<polygon fill="#63b8ff" stroke="#63b8ff" points="218.47,-26.48 210.89,-19.08 212.2,-29.6 218.47,-26.48"/>
</a>
</g>
</g>
<!-- Node4 -->
<g id="Node000004" class="node">
<title>Node4</title>
<g id="a_Node000004"><a xlink:href="settings_8cpp.html#abb5ddbc994d543c5f0f27a3cf8738672" target="_top" xlink:title="This function was copied directly from the BeBook.">
<polygon fill="white" stroke="#666666" points="381,-19 286,-19 286,0 381,0 381,-19"/>
<text text-anchor="middle" x="333.5" y="-7" font-family="Helvetica,sans-Serif" font-size="10.00">del_InputDevice</text>
</a>
</g>
</g>
<!-- Node3&#45;&gt;Node4 -->
<g id="edge3_Node000003_Node000004" class="edge">
<title>Node3&#45;&gt;Node4</title>
<g id="a_edge3_Node000003_Node000004"><a xlink:title=" ">
<path fill="none" stroke="#63b8ff" d="M250.02,-9.5C258.56,-9.5 267.33,-9.5 275.81,-9.5"/>
<polygon fill="#63b8ff" stroke="#63b8ff" points="275.97,-13 285.97,-9.5 275.97,-6 275.97,-13"/>
</a>
</g>
</g>
</g>
</svg>
