<?xml version="1.0" encoding="UTF-8" standalone="no"?>
<!DOCTYPE svg PUBLIC "-//W3C//DTD SVG 1.1//EN"
 "http://www.w3.org/Graphics/SVG/1.1/DTD/svg11.dtd">
<!-- Generated by graphviz version 2.43.0 (0)
 -->
<!-- Title: Settings Pages: 1 -->
<svg width="481pt" height="91pt"
 viewBox="0.00 0.00 481.00 91.00" xmlns="http://www.w3.org/2000/svg" xmlns:xlink="http://www.w3.org/1999/xlink">
<g id="graph0" class="graph" transform="scale(1 1) rotate(0) translate(4 87)">
<title>Settings</title>
<!-- Node1 -->
<g id="Node000001" class="node">
<title>Node1</title>
<g id="a_Node000001"><a xlink:title=" ">
<polygon fill="#999999" stroke="#666666" points="56,-64 0,-64 0,-45 56,-45 56,-64"/>
<text text-anchor="middle" x="28" y="-52" font-family="Helvetica,sans-Serif" font-size="10.00">Settings</text>
</a>
</g>
</g>
<!-- Node2 -->
<g id="Node000002" class="node">
<title>Node2</title>
<g id="a_Node000002"><a xlink:href="settings_8h.html#ac0dbe6cf08ede8a4eeab661cd09c0ecf" target="_top" xlink:title=" ">
<polygon fill="white" stroke="#666666" points="184,-83 92,-83 92,-64 184,-64 184,-83"/>
<text text-anchor="middle" x="138" y="-71" font-family="Helvetica,sans-Serif" font-size="10.00">SetNotifyTarget</text>
</a>
</g>
</g>
<!-- Node1&#45;&gt;Node2 -->
<g id="edge1_Node000001_Node000002" class="edge">
<title>Node1&#45;&gt;Node2</title>
<g id="a_edge1_Node000001_Node000002"><a xlink:title=" ">
<path fill="none" stroke="#63b8ff" d="M56.25,-59.29C64.06,-60.67 72.87,-62.22 81.72,-63.78"/>
<polygon fill="#63b8ff" stroke="#63b8ff" points="81.23,-67.24 91.69,-65.53 82.44,-60.35 81.23,-67.24"/>
</a>
</g>
</g>
<!-- Node3 -->
<g id="Node000003" class="node">
<title>Node3</title>
<g id="a_Node000003"><a xlink:href="settings_8h.html#a4c8f322743ace99a237a02f22a58caba" target="_top" xlink:title=" ">
<polygon fill="white" stroke="#666666" points="184,-46 92,-46 92,-27 184,-27 184,-46"/>
<text text-anchor="middle" x="138" y="-34" font-family="Helvetica,sans-Serif" font-size="10.00">StartMonitoring</text>
</a>
</g>
</g>
<!-- Node1&#45;&gt;Node3 -->
<g id="edge2_Node000001_Node000003" class="edge">
<title>Node1&#45;&gt;Node3</title>
<g id="a_edge2_Node000001_Node000003"><a xlink:title=" ">
<path fill="none" stroke="#63b8ff" d="M56.25,-49.96C64.06,-48.66 72.87,-47.19 81.72,-45.71"/>
<polygon fill="#63b8ff" stroke="#63b8ff" points="82.4,-49.15 91.69,-44.05 81.25,-42.24 82.4,-49.15"/>
</a>
</g>
</g>
<!-- Node4 -->
<g id="Node000004" class="node">
<title>Node4</title>
<g id="a_Node000004"><a xlink:href="settings_8h.html#adda40614fbfbcd1147035846ff2fdfcf" target="_top" xlink:title="Service function for creating a default file with settings. All devices are enabled.">
<polygon fill="white" stroke="#666666" points="334,-74 228,-74 228,-55 334,-55 334,-74"/>
<text text-anchor="middle" x="281" y="-62" font-family="Helvetica,sans-Serif" font-size="10.00">CreateSettingsFile</text>
</a>
</g>
</g>
<!-- Node3&#45;&gt;Node4 -->
<g id="edge3_Node000003_Node000004" class="edge">
<title>Node3&#45;&gt;Node4</title>
<g id="a_edge3_Node000003_Node000004"><a xlink:title=" ">
<path fill="none" stroke="#63b8ff" d="M184,-45.44C196.08,-47.84 209.32,-50.46 222,-52.98"/>
<polygon fill="#63b8ff" stroke="#63b8ff" points="221.53,-56.46 232.02,-54.97 222.89,-49.59 221.53,-56.46"/>
</a>
</g>
</g>
<!-- Node5 -->
<g id="Node000005" class="node">
<title>Node5</title>
<g id="a_Node000005"><a xlink:href="settings_8h.html#a3360589d74d76cac2974ebfbbceac799" target="_top" xlink:title="Service function that builds path to the settings file.">
<polygon fill="white" stroke="#666666" points="342,-19 220,-19 220,0 342,0 342,-19"/>
<text text-anchor="middle" x="281" y="-7" font-family="Helvetica,sans-Serif" font-size="10.00">GetPathToSettingsFile</text>
</a>
</g>
</g>
<!-- Node3&#45;&gt;Node5 -->
<g id="edge4_Node000003_Node000005" class="edge">
<title>Node3&#45;&gt;Node5</title>
<g id="a_edge4_Node000003_Node000005"><a xlink:title=" ">
<path fill="none" stroke="#63b8ff" d="M184,-27.88C195.46,-25.69 207.96,-23.3 220.04,-20.98"/>
<polygon fill="#63b8ff" stroke="#63b8ff" points="220.89,-24.38 230.05,-19.07 219.57,-17.51 220.89,-24.38"/>
</a>
</g>
</g>
<!-- Node5&#45;&gt;Node5 -->
<g id="edge6_Node000005_Node000005" class="edge">
<title>Node5&#45;&gt;Node5</title>
<g id="a_edge6_Node000005_Node000005"><a xlink:title=" ">
<path fill="none" stroke="#63b8ff" d="M259.11,-19.08C248.47,-27.73 255.76,-37 281,-37 297.17,-37 305.97,-33.2 307.41,-28.19"/>
<polygon fill="#63b8ff" stroke="#63b8ff" points="310.47,-26.48 302.89,-19.08 304.2,-29.6 310.47,-26.48"/>
</a>
</g>
</g>
<!-- Node6 -->
<g id="Node000006" class="node">
<title>Node6</title>
<g id="a_Node000006"><a xlink:href="settings_8cpp.html#abb5ddbc994d543c5f0f27a3cf8738672" target="_top" xlink:title="This function was copied directly from the BeBook.">
<polygon fill="white" stroke="#666666" points="473,-19 378,-19 378,0 473,0 473,-19"/>
<text text-anchor="middle" x="425.5" y="-7" font-family="Helvetica,sans-Serif" font-size="10.00">del_InputDevice</text>
</a>
</g>
</g>
<!-- Node5&#45;&gt;Node6 -->
<g id="edge5_Node000005_Node000006" class="edge">
<title>Node5&#45;&gt;Node6</title>
<g id="a_edge5_Node000005_Node000006"><a xlink:title=" ">
<path fill="none" stroke="#63b8ff" d="M342.02,-9.5C350.56,-9.5 359.33,-9.5 367.81,-9.5"/>
<polygon fill="#63b8ff" stroke="#63b8ff" points="367.97,-13 377.97,-9.5 367.97,-6 367.97,-13"/>
</a>
</g>
</g>
</g>
</svg>
