<?xml version="1.0" encoding="UTF-8" standalone="no"?>
<!DOCTYPE svg PUBLIC "-//W3C//DTD SVG 1.1//EN"
 "http://www.w3.org/Graphics/SVG/1.1/DTD/svg11.dtd">
<!-- Generated by graphviz version 2.43.0 (0)
 -->
<!-- Title: settings.cpp Pages: 1 -->
<svg width="606pt" height="137pt"
 viewBox="0.00 0.00 606.00 137.00" xmlns="http://www.w3.org/2000/svg" xmlns:xlink="http://www.w3.org/1999/xlink">
<g id="graph0" class="graph" transform="scale(1 1) rotate(0) translate(4 133)">
<title>settings.cpp</title>
<!-- Node1 -->
<g id="Node000001" class="node">
<title>Node1</title>
<g id="a_Node000001"><a xlink:title=" ">
<polygon fill="#999999" stroke="#666666" points="464,-129 388,-129 388,-110 464,-110 464,-129"/>
<text text-anchor="middle" x="426" y="-117" font-family="Helvetica,sans-Serif" font-size="10.00">settings.cpp</text>
</a>
</g>
</g>
<!-- Node2 -->
<g id="Node000002" class="node">
<title>Node2</title>
<g id="a_Node000002"><a xlink:href="settings_8h.html" target="_top" xlink:title=" ">
<polygon fill="white" stroke="#666666" points="259.5,-74 194.5,-74 194.5,-55 259.5,-55 259.5,-74"/>
<text text-anchor="middle" x="227" y="-62" font-family="Helvetica,sans-Serif" font-size="10.00">settings.h</text>
</a>
</g>
</g>
<!-- Node1&#45;&gt;Node2 -->
<g id="edge1_Node000001_Node000002" class="edge">
<title>Node1&#45;&gt;Node2</title>
<g id="a_edge1_Node000001_Node000002"><a xlink:title=" ">
<path fill="none" stroke="#63b8ff" d="M394.03,-109.98C360.18,-100.97 306.6,-86.7 269.29,-76.76"/>
<polygon fill="#63b8ff" stroke="#63b8ff" points="269.79,-73.27 259.22,-74.08 267.99,-80.04 269.79,-73.27"/>
</a>
</g>
</g>
<!-- Node9 -->
<g id="Node000009" class="node">
<title>Node9</title>
<g id="a_Node000009"><a xlink:title=" ">
<polygon fill="#e0e0e0" stroke="#999999" points="366.5,-74 277.5,-74 277.5,-55 366.5,-55 366.5,-74"/>
<text text-anchor="middle" x="322" y="-62" font-family="Helvetica,sans-Serif" font-size="10.00">FindDirectory.h</text>
</a>
</g>
</g>
<!-- Node1&#45;&gt;Node9 -->
<g id="edge8_Node000001_Node000009" class="edge">
<title>Node1&#45;&gt;Node9</title>
<g id="a_edge8_Node000001_Node000009"><a xlink:title=" ">
<path fill="none" stroke="#63b8ff" d="M409.29,-109.98C392.79,-101.57 367.3,-88.59 348.12,-78.81"/>
<polygon fill="#63b8ff" stroke="#63b8ff" points="349.51,-75.59 339.01,-74.17 346.33,-81.83 349.51,-75.59"/>
</a>
</g>
</g>
<!-- Node10 -->
<g id="Node000010" class="node">
<title>Node10</title>
<g id="a_Node000010"><a xlink:title=" ">
<polygon fill="#e0e0e0" stroke="#999999" points="468,-74 384,-74 384,-55 468,-55 468,-74"/>
<text text-anchor="middle" x="426" y="-62" font-family="Helvetica,sans-Serif" font-size="10.00">InputDevice.h</text>
</a>
</g>
</g>
<!-- Node1&#45;&gt;Node10 -->
<g id="edge9_Node000001_Node000010" class="edge">
<title>Node1&#45;&gt;Node10</title>
<g id="a_edge9_Node000001_Node000010"><a xlink:title=" ">
<path fill="none" stroke="#63b8ff" d="M426,-109.75C426,-102.8 426,-92.85 426,-84.13"/>
<polygon fill="#63b8ff" stroke="#63b8ff" points="429.5,-84.09 426,-74.09 422.5,-84.09 429.5,-84.09"/>
</a>
</g>
</g>
<!-- Node11 -->
<g id="Node000011" class="node">
<title>Node11</title>
<g id="a_Node000011"><a xlink:title=" ">
<polygon fill="#e0e0e0" stroke="#999999" points="529.5,-74 486.5,-74 486.5,-55 529.5,-55 529.5,-74"/>
<text text-anchor="middle" x="508" y="-62" font-family="Helvetica,sans-Serif" font-size="10.00">List.h</text>
</a>
</g>
</g>
<!-- Node1&#45;&gt;Node11 -->
<g id="edge10_Node000001_Node000011" class="edge">
<title>Node1&#45;&gt;Node11</title>
<g id="a_edge10_Node000001_Node000011"><a xlink:title=" ">
<path fill="none" stroke="#63b8ff" d="M439.17,-109.98C451.77,-101.84 471,-89.41 485.94,-79.76"/>
<polygon fill="#63b8ff" stroke="#63b8ff" points="488.09,-82.54 494.59,-74.17 484.29,-76.66 488.09,-82.54"/>
</a>
</g>
</g>
<!-- Node12 -->
<g id="Node000012" class="node">
<title>Node12</title>
<g id="a_Node000012"><a xlink:title=" ">
<polygon fill="#e0e0e0" stroke="#999999" points="598,-74 548,-74 548,-55 598,-55 598,-74"/>
<text text-anchor="middle" x="573" y="-62" font-family="Helvetica,sans-Serif" font-size="10.00">stdio.h</text>
</a>
</g>
</g>
<!-- Node1&#45;&gt;Node12 -->
<g id="edge11_Node000001_Node000012" class="edge">
<title>Node1&#45;&gt;Node12</title>
<g id="a_edge11_Node000001_Node000012"><a xlink:title=" ">
<path fill="none" stroke="#63b8ff" d="M449.62,-109.98C473.9,-101.23 511.95,-87.51 539.37,-77.62"/>
<polygon fill="#63b8ff" stroke="#63b8ff" points="540.73,-80.85 548.95,-74.17 538.36,-74.27 540.73,-80.85"/>
</a>
</g>
</g>
<!-- Node3 -->
<g id="Node000003" class="node">
<title>Node3</title>
<g id="a_Node000003"><a xlink:title=" ">
<polygon fill="#e0e0e0" stroke="#999999" points="54,-19 0,-19 0,0 54,0 54,-19"/>
<text text-anchor="middle" x="27" y="-7" font-family="Helvetica,sans-Serif" font-size="10.00">Errors.h</text>
</a>
</g>
</g>
<!-- Node2&#45;&gt;Node3 -->
<g id="edge2_Node000002_Node000003" class="edge">
<title>Node2&#45;&gt;Node3</title>
<g id="a_edge2_Node000002_Node000003"><a xlink:title=" ">
<path fill="none" stroke="#63b8ff" d="M194.87,-54.98C159.24,-45.54 101.85,-30.33 64.27,-20.38"/>
<polygon fill="#63b8ff" stroke="#63b8ff" points="64.8,-16.9 54.23,-17.72 63,-23.66 64.8,-16.9"/>
</a>
</g>
</g>
<!-- Node4 -->
<g id="Node000004" class="node">
<title>Node4</title>
<g id="a_Node000004"><a xlink:title=" ">
<polygon fill="#e0e0e0" stroke="#999999" points="128,-19 72,-19 72,0 128,0 128,-19"/>
<text text-anchor="middle" x="100" y="-7" font-family="Helvetica,sans-Serif" font-size="10.00">Locker.h</text>
</a>
</g>
</g>
<!-- Node2&#45;&gt;Node4 -->
<g id="edge3_Node000002_Node000004" class="edge">
<title>Node2&#45;&gt;Node4</title>
<g id="a_edge3_Node000002_Node000004"><a xlink:title=" ">
<path fill="none" stroke="#63b8ff" d="M206.6,-54.98C185.98,-46.38 153.89,-32.99 130.31,-23.15"/>
<polygon fill="#63b8ff" stroke="#63b8ff" points="131.35,-19.79 120.78,-19.17 128.66,-26.25 131.35,-19.79"/>
</a>
</g>
</g>
<!-- Node5 -->
<g id="Node000005" class="node">
<title>Node5</title>
<g id="a_Node000005"><a xlink:title=" ">
<polygon fill="#e0e0e0" stroke="#999999" points="224,-19 146,-19 146,0 224,0 224,-19"/>
<text text-anchor="middle" x="185" y="-7" font-family="Helvetica,sans-Serif" font-size="10.00">Messenger.h</text>
</a>
</g>
</g>
<!-- Node2&#45;&gt;Node5 -->
<g id="edge4_Node000002_Node000005" class="edge">
<title>Node2&#45;&gt;Node5</title>
<g id="a_edge4_Node000002_Node000005"><a xlink:title=" ">
<path fill="none" stroke="#63b8ff" d="M220.06,-54.75C214.13,-47.26 205.43,-36.28 198.18,-27.13"/>
<polygon fill="#63b8ff" stroke="#63b8ff" points="200.76,-24.75 191.81,-19.09 195.27,-29.1 200.76,-24.75"/>
</a>
</g>
</g>
<!-- Node6 -->
<g id="Node000006" class="node">
<title>Node6</title>
<g id="a_Node000006"><a xlink:title=" ">
<polygon fill="#e0e0e0" stroke="#999999" points="296,-19 242,-19 242,0 296,0 296,-19"/>
<text text-anchor="middle" x="269" y="-7" font-family="Helvetica,sans-Serif" font-size="10.00">String.h</text>
</a>
</g>
</g>
<!-- Node2&#45;&gt;Node6 -->
<g id="edge5_Node000002_Node000006" class="edge">
<title>Node2&#45;&gt;Node6</title>
<g id="a_edge5_Node000002_Node000006"><a xlink:title=" ">
<path fill="none" stroke="#63b8ff" d="M233.94,-54.75C239.87,-47.26 248.57,-36.28 255.82,-27.13"/>
<polygon fill="#63b8ff" stroke="#63b8ff" points="258.73,-29.1 262.19,-19.09 253.24,-24.75 258.73,-29.1"/>
</a>
</g>
</g>
<!-- Node7 -->
<g id="Node000007" class="node">
<title>Node7</title>
<g id="a_Node000007"><a xlink:title=" ">
<polygon fill="#e0e0e0" stroke="#999999" points="374,-19 314,-19 314,0 374,0 374,-19"/>
<text text-anchor="middle" x="344" y="-7" font-family="Helvetica,sans-Serif" font-size="10.00">iostream</text>
</a>
</g>
</g>
<!-- Node2&#45;&gt;Node7 -->
<g id="edge6_Node000002_Node000007" class="edge">
<title>Node2&#45;&gt;Node7</title>
<g id="a_edge6_Node000002_Node000007"><a xlink:title=" ">
<path fill="none" stroke="#63b8ff" d="M245.8,-54.98C264.62,-46.46 293.82,-33.23 315.5,-23.41"/>
<polygon fill="#63b8ff" stroke="#63b8ff" points="317.2,-26.48 324.86,-19.17 314.31,-20.11 317.2,-26.48"/>
</a>
</g>
</g>
<!-- Node8 -->
<g id="Node000008" class="node">
<title>Node8</title>
<g id="a_Node000008"><a xlink:title=" ">
<polygon fill="#e0e0e0" stroke="#999999" points="485.5,-19 392.5,-19 392.5,0 485.5,0 485.5,-19"/>
<text text-anchor="middle" x="439" y="-7" font-family="Helvetica,sans-Serif" font-size="10.00">unordered_map</text>
</a>
</g>
</g>
<!-- Node2&#45;&gt;Node8 -->
<g id="edge7_Node000002_Node000008" class="edge">
<title>Node2&#45;&gt;Node8</title>
<g id="a_edge7_Node000002_Node000008"><a xlink:title=" ">
<path fill="none" stroke="#63b8ff" d="M259.66,-55.33C295.96,-46.26 354.76,-31.56 395.07,-21.48"/>
<polygon fill="#63b8ff" stroke="#63b8ff" points="396.04,-24.85 404.9,-19.03 394.35,-18.06 396.04,-24.85"/>
</a>
</g>
</g>
</g>
</svg>
