<?xml version="1.0" encoding="UTF-8" standalone="no"?>
<!DOCTYPE svg PUBLIC "-//W3C//DTD SVG 1.1//EN"
 "http://www.w3.org/Graphics/SVG/1.1/DTD/svg11.dtd">
<!-- Generated by graphviz version 2.43.0 (0)
 -->
<!-- Title: GetPathToSettingsFile Pages: 1 -->
<svg width="350pt" height="45pt"
 viewBox="0.00 0.00 350.00 45.00" xmlns="http://www.w3.org/2000/svg" xmlns:xlink="http://www.w3.org/1999/xlink">
<g id="graph0" class="graph" transform="scale(1 1) rotate(0) translate(4 41)">
<title>GetPathToSettingsFile</title>
<!-- Node1 -->
<g id="Node000001" class="node">
<title>Node1</title>
<g id="a_Node000001"><a xlink:title="Service function that builds path to the settings file.">
<polygon fill="#999999" stroke="#666666" points="342,-19 220,-19 220,0 342,0 342,-19"/>
<text text-anchor="middle" x="281" y="-7" font-family="Helvetica,sans-Serif" font-size="10.00">GetPathToSettingsFile</text>
</a>
</g>
</g>
<!-- Node1&#45;&gt;Node1 -->
<g id="edge1_Node000001_Node000001" class="edge">
<title>Node1&#45;&gt;Node1</title>
<g id="a_edge1_Node000001_Node000001"><a xlink:title=" ">
<path fill="none" stroke="#63b8ff" d="M307.41,-28.19C305.97,-33.2 297.17,-37 281,-37 255.76,-37 248.47,-27.73 259.11,-19.08"/>
<polygon fill="#63b8ff" stroke="#63b8ff" points="310.47,-26.48 302.89,-19.08 304.2,-29.6 310.47,-26.48"/>
</a>
</g>
</g>
<!-- Node2 -->
<g id="Node000002" class="node">
<title>Node2</title>
<g id="a_Node000002"><a xlink:href="settings_8h.html#a4c8f322743ace99a237a02f22a58caba" target="_top" xlink:title=" ">
<polygon fill="white" stroke="#666666" points="184,-19 92,-19 92,0 184,0 184,-19"/>
<text text-anchor="middle" x="138" y="-7" font-family="Helvetica,sans-Serif" font-size="10.00">StartMonitoring</text>
</a>
</g>
</g>
<!-- Node1&#45;&gt;Node2 -->
<g id="edge2_Node000001_Node000002" class="edge">
<title>Node1&#45;&gt;Node2</title>
<g id="a_edge2_Node000001_Node000002"><a xlink:title=" ">
<path fill="none" stroke="#63b8ff" d="M209.63,-9.5C200.93,-9.5 192.24,-9.5 184.07,-9.5"/>
<polygon fill="#63b8ff" stroke="#63b8ff" points="209.79,-13 219.79,-9.5 209.79,-6 209.79,-13"/>
</a>
</g>
</g>
<!-- Node3 -->
<g id="Node000003" class="node">
<title>Node3</title>
<g id="a_Node000003"><a xlink:href="settings_8h.html#a8e601881b5de560f49a6c9345e58fb04" target="_top" xlink:title=" ">
<polygon fill="white" stroke="#666666" points="56,-19 0,-19 0,0 56,0 56,-19"/>
<text text-anchor="middle" x="28" y="-7" font-family="Helvetica,sans-Serif" font-size="10.00">Settings</text>
</a>
</g>
</g>
<!-- Node2&#45;&gt;Node3 -->
<g id="edge3_Node000002_Node000003" class="edge">
<title>Node2&#45;&gt;Node3</title>
<g id="a_edge3_Node000002_Node000003"><a xlink:title=" ">
<path fill="none" stroke="#63b8ff" d="M81.78,-9.5C72.86,-9.5 63.98,-9.5 56.12,-9.5"/>
<polygon fill="#63b8ff" stroke="#63b8ff" points="81.82,-13 91.82,-9.5 81.82,-6 81.82,-13"/>
</a>
</g>
</g>
</g>
</svg>
