<?xml version="1.0" encoding="UTF-8" standalone="no"?>
<!DOCTYPE svg PUBLIC "-//W3C//DTD SVG 1.1//EN"
 "http://www.w3.org/Graphics/SVG/1.1/DTD/svg11.dtd">
<!-- Generated by graphviz version 2.43.0 (0)
 -->
<!-- Title: SetNotifyTarget Pages: 1 -->
<svg width="201pt" height="64pt"
 viewBox="0.00 0.00 201.00 64.00" xmlns="http://www.w3.org/2000/svg" xmlns:xlink="http://www.w3.org/1999/xlink">
<g id="graph0" class="graph" transform="scale(1 1) rotate(0) translate(4 60)">
<title>SetNotifyTarget</title>
<!-- Node1 -->
<g id="Node000001" class="node">
<title>Node1</title>
<g id="a_Node000001"><a xlink:title=" ">
<polygon fill="#999999" stroke="#666666" points="193,-37 101,-37 101,-18 193,-18 193,-37"/>
<text text-anchor="middle" x="147" y="-25" font-family="Helvetica,sans-Serif" font-size="10.00">SetNotifyTarget</text>
</a>
</g>
</g>
<!-- Node2 -->
<g id="Node000002" class="node">
<title>Node2</title>
<g id="a_Node000002"><a xlink:href="settings_8h.html#a8e601881b5de560f49a6c9345e58fb04" target="_top" xlink:title=" ">
<polygon fill="white" stroke="#666666" points="60.5,-56 4.5,-56 4.5,-37 60.5,-37 60.5,-56"/>
<text text-anchor="middle" x="32.5" y="-44" font-family="Helvetica,sans-Serif" font-size="10.00">Settings</text>
</a>
</g>
</g>
<!-- Node1&#45;&gt;Node2 -->
<g id="edge1_Node000001_Node000002" class="edge">
<title>Node1&#45;&gt;Node2</title>
<g id="a_edge1_Node000001_Node000002"><a xlink:title=" ">
<path fill="none" stroke="#63b8ff" d="M90.92,-36.8C80.45,-38.57 69.93,-40.35 60.81,-41.89"/>
<polygon fill="#63b8ff" stroke="#63b8ff" points="91.61,-40.24 100.89,-35.12 90.45,-33.33 91.61,-40.24"/>
</a>
</g>
</g>
<!-- Node3 -->
<g id="Node000003" class="node">
<title>Node3</title>
<g id="a_Node000003"><a xlink:href="settings_8h.html#a4a65be5921dfc9fddc476e5320541d89" target="_top" xlink:title=" ">
<polygon fill="white" stroke="#666666" points="65,-19 0,-19 0,0 65,0 65,-19"/>
<text text-anchor="middle" x="32.5" y="-7" font-family="Helvetica,sans-Serif" font-size="10.00">~Settings</text>
</a>
</g>
</g>
<!-- Node1&#45;&gt;Node3 -->
<g id="edge2_Node000001_Node000003" class="edge">
<title>Node1&#45;&gt;Node3</title>
<g id="a_edge2_Node000001_Node000003"><a xlink:title=" ">
<path fill="none" stroke="#63b8ff" d="M90.95,-18.69C82.09,-17.27 73.19,-15.85 65.13,-14.56"/>
<polygon fill="#63b8ff" stroke="#63b8ff" points="90.46,-22.16 100.89,-20.28 91.57,-15.25 90.46,-22.16"/>
</a>
</g>
</g>
</g>
</svg>
